<?xml version="1.0" encoding="UTF-8"?>
<svg version="1.1" xmlns="http://www.w3.org/2000/svg" width="225" height="225">
<path d="M0 0 C74.25 0 148.5 0 225 0 C225 74.25 225 148.5 225 225 C150.75 225 76.5 225 0 225 C0 150.75 0 76.5 0 0 Z " fill="#7169A9" transform="translate(0,0)"/>
<path d="M0 0 C74.25 0 148.5 0 225 0 C225 74.25 225 148.5 225 225 C150.75 225 76.5 225 0 225 C0 150.75 0 76.5 0 0 Z M36 50 C33.38367727 53.18848078 31.14681737 56.48021804 29 60 C28.34257812 61.06347656 27.68515625 62.12695312 27.0078125 63.22265625 C13.98520368 85.34203077 10.69624138 111.66592504 16.73828125 136.453125 C22.92635106 159.7135936 37.86628001 182.93137917 58.96484375 195.34765625 C59.96644531 195.89292969 60.96804687 196.43820313 62 197 C62.59828613 197.32983887 63.19657227 197.65967773 63.81298828 197.99951172 C72.91332804 202.96520655 81.83186325 206.70552734 92 209 C92.98226562 209.22429687 93.96453125 209.44859375 94.9765625 209.6796875 C120.39909503 214.68196479 146.20922233 207.88857861 167.796875 194.23046875 C192.11318417 177.53936058 204.93319977 153.43533718 210.5859375 125.05859375 C214.0096739 99.76816354 206.62990504 74.6130254 191.875 54.0625 C174.40898524 31.45942207 150.43140244 18.04411718 122.16259766 14.24316406 C88.51309395 10.45958925 58.22552092 25.61801226 36 50 Z " fill="#FDFEFE" transform="translate(0,0)"/>
<path d="M0 0 C1.12697548 -0.00021904 1.12697548 -0.00021904 2.27671814 -0.0004425 C4.76572535 0.00025543 7.25465817 0.00804225 9.74365234 0.01586914 C11.4671525 0.01773374 13.19065318 0.01915745 14.91415405 0.02015686 C19.45484882 0.0239787 23.9955117 0.03380617 28.53619385 0.04486084 C33.16784229 0.0550821 37.79949588 0.05965602 42.43115234 0.06469727 C51.5223122 0.07542872 60.61344837 0.09250117 69.70458984 0.11352539 C69.73346221 3.92600965 69.75134476 7.73846609 69.76708984 11.55102539 C69.77546875 12.63963867 69.78384766 13.72825195 69.79248047 14.84985352 C69.79570312 15.88432617 69.79892578 16.91879883 69.80224609 17.98461914 C69.80748291 18.94295654 69.81271973 19.90129395 69.81811523 20.88867188 C69.70458984 23.11352539 69.70458984 23.11352539 68.70458984 24.11352539 C66.34236767 24.21909156 64.00923601 24.26031037 61.64624023 24.25878906 C60.53893303 24.26382698 60.53893303 24.26382698 59.40925598 24.26896667 C56.95690247 24.27850421 54.50461702 24.28042118 52.05224609 24.28149414 C50.3545275 24.28470478 48.65680919 24.2880687 46.95909119 24.2915802 C43.39549111 24.29757849 39.83191532 24.29941939 36.26831055 24.29882812 C31.69365941 24.29872646 27.11916335 24.31237959 22.54454899 24.32960033 C19.03677144 24.34069884 15.52903164 24.342748 12.02123833 24.3422184 C10.33427839 24.34340173 8.64731758 24.34784317 6.96037483 24.35555077 C4.60424959 24.36530748 2.24846427 24.36248992 -0.10766602 24.35644531 C-0.80956055 24.36206482 -1.51145508 24.36768433 -2.23461914 24.37347412 C-7.06709438 24.34184116 -7.06709438 24.34184116 -9.29541016 22.11352539 C-9.52246094 19.95874023 -9.52246094 19.95874023 -9.49072266 17.32446289 C-9.48427734 16.38344727 -9.47783203 15.44243164 -9.47119141 14.47290039 C-9.45443359 13.48805664 -9.43767578 12.50321289 -9.42041016 11.48852539 C-9.41138672 10.49594727 -9.40236328 9.50336914 -9.39306641 8.48071289 C-9.36945132 6.02474405 -9.33651815 3.56925371 -9.29541016 1.11352539 C-6.3129746 -0.37769239 -3.26925264 -0.01648933 0 0 Z " fill="#FBFAFB" transform="translate(63.29541015625,153.886474609375)"/>
<path d="M0 0 C0.87107895 -0.0159874 1.7421579 -0.03197479 2.63963318 -0.04844666 C3.58234573 -0.05380936 4.52505829 -0.05917206 5.49633789 -0.06469727 C6.94635948 -0.07823997 6.94635948 -0.07823997 8.42567444 -0.09205627 C10.47255343 -0.10657988 12.51947906 -0.11545073 14.56640625 -0.11914062 C17.70334768 -0.13104414 20.83832719 -0.18021514 23.97485352 -0.23071289 C25.96117201 -0.24017579 27.94750262 -0.24741146 29.93383789 -0.25219727 C30.87452621 -0.27172958 31.81521454 -0.2912619 32.78440857 -0.31138611 C35.22032675 -0.2944514 37.40869608 -0.24585036 39.78149414 0.30639648 C41.74194336 2.74243164 41.74194336 2.74243164 42.78149414 5.30639648 C45.23341725 6.95202194 45.23341725 6.95202194 47.96899414 8.11889648 C48.87004883 8.5378418 49.77110352 8.95678711 50.69946289 9.38842773 C51.3865332 9.69135742 52.07360352 9.99428711 52.78149414 10.30639648 C52.78149414 10.63639648 52.78149414 10.96639648 52.78149414 11.30639648 C43.21149414 11.63639648 33.64149414 11.96639648 23.78149414 12.30639648 C23.78149414 12.96639648 23.78149414 13.62639648 23.78149414 14.30639648 C24.91055176 14.31050537 26.03960937 14.31461426 27.20288086 14.31884766 C31.43396249 14.34079233 35.66413429 14.39523809 39.89477539 14.45898438 C41.71792817 14.48203166 43.54121158 14.49652862 45.36450195 14.50195312 C64.81292646 14.57118355 64.81292646 14.57118355 72.78149414 20.30639648 C72.28649414 22.78139648 72.28649414 22.78139648 71.78149414 25.30639648 C61.90688626 25.3526724 52.03230404 25.38824147 42.15760994 25.41002083 C37.57272648 25.42047215 32.98791703 25.43465584 28.40307617 25.45727539 C23.9810704 25.47895584 19.55913595 25.49095494 15.13708115 25.49615097 C13.44732413 25.49985538 11.75757116 25.50708885 10.06784439 25.5178566 C7.70684525 25.53230791 5.34614344 25.53437712 2.98510742 25.53344727 C2.28164185 25.54063782 1.57817627 25.54782837 0.85339355 25.55523682 C-3.99040154 25.53450081 -3.99040154 25.53450081 -6.21850586 23.30639648 C-6.47729492 21.18334961 -6.47729492 21.18334961 -6.48413086 18.58764648 C-6.48670898 17.6556543 -6.48928711 16.72366211 -6.49194336 15.76342773 C-6.48420898 14.78760742 -6.47647461 13.81178711 -6.46850586 12.80639648 C-6.47624023 11.83057617 -6.48397461 10.85475586 -6.49194336 9.84936523 C-6.48936523 8.91737305 -6.48678711 7.98538086 -6.48413086 7.02514648 C-6.481875 6.16856445 -6.47961914 5.31198242 -6.47729492 4.42944336 C-5.96986808 0.26662845 -3.64585606 0.05049847 0 0 Z " fill="#FBFBFB" transform="translate(60.218505859375,115.693603515625)"/>
<path d="M0 0 C3.44055647 0.56985743 6.1596467 1.41548894 9.22265625 3.07421875 C10.00326416 3.491875 10.78387207 3.90953125 11.58813477 4.33984375 C12.40467529 4.78457031 13.22121582 5.22929688 14.0625 5.6875 C15.75983796 6.59873503 17.45775502 7.50889217 19.15625 8.41796875 C19.98125 8.86060059 20.80625 9.30323242 21.65625 9.75927734 C25.67252873 11.8853949 29.75493847 13.86914283 33.84765625 15.84375 C36 17 36 17 38 19 C38.00810453 27.09642766 34.92958908 32.66873246 30.9375 39.5625 C30.36966797 40.57119141 29.80183594 41.57988281 29.21679688 42.61914062 C27.82467942 45.08751695 26.41905691 47.54704509 25 50 C22.13275314 49.42655063 21.1385485 49.1385485 19 47 C19.56589844 45.89140625 20.13179687 44.7828125 20.71484375 43.640625 C21.45594175 42.17719097 22.19681544 40.71364333 22.9375 39.25 C23.31068359 38.52039063 23.68386719 37.79078125 24.06835938 37.0390625 C24.42607422 36.33007812 24.78378906 35.62109375 25.15234375 34.890625 C25.48226318 34.24125977 25.81218262 33.59189453 26.15209961 32.92285156 C27.01452116 30.96706921 27.54374179 29.08459306 28 27 C24.48724474 28.17091842 24.34982766 28.66338067 22.73828125 31.81640625 C22.14370117 32.96206055 22.14370117 32.96206055 21.53710938 34.13085938 C21.13298828 34.93330078 20.72886719 35.73574219 20.3125 36.5625 C19.89677734 37.36880859 19.48105469 38.17511719 19.05273438 39.00585938 C18.02636638 40.9996087 17.00928802 42.99756497 16 45 C13.03 44.505 13.03 44.505 10 44 C11.29027962 39.69906795 12.99744756 35.87649478 15.09765625 31.9296875 C16.01466752 29.96863309 16.5448252 28.11163566 17 26 C13.68655145 26.735859 13.68655145 26.735859 12.17578125 30.16015625 C11.54446852 31.45600869 10.92374601 32.75706229 10.3125 34.0625 C9.99216797 34.72572266 9.67183594 35.38894531 9.34179688 36.07226562 C8.5521402 37.71050858 7.77487638 39.35471454 7 41 C4.83125748 40.49396008 3.00032373 40.00016187 1 39 C2.07949708 36.17669994 3.25033803 33.50895232 4.625 30.8125 C6.14640338 28.22230854 6.14640338 28.22230854 6 26 C5.01 26 4.02 26 3 26 C1.35 29.3 -0.3 32.6 -2 36 C-3.98 35.67 -5.96 35.34 -8 35 C-7.07917776 30.21172435 -4.60415977 26.16184572 -2.375 21.875 C-1.25148492 19.5258321 -0.48811662 17.53820643 0 15 C-3.77447676 16.25815892 -4.26214999 17.95485075 -6.00976562 21.37109375 C-6.35716797 22.07363281 -6.70457031 22.77617188 -7.0625 23.5 C-10.75 30.875 -10.75 30.875 -13 32 C-15.125 31.0625 -15.125 31.0625 -17 30 C-16.690625 29.236875 -16.38125 28.47375 -16.0625 27.6875 C-15.32106407 25.81210323 -14.63771783 23.91315348 -14 22 C-15.94999129 22.19471111 -15.94999129 22.19471111 -18 23 C-19.28436734 24.9837767 -19.28436734 24.9837767 -20 27 C-21.65 26.67 -23.3 26.34 -25 26 C-25 20.78242066 -22.63862413 19.01083216 -19.1875 15.5 C-18.09605057 14.36612675 -17.00616277 13.23074788 -15.91796875 12.09375 C-15.4079834 11.56265625 -14.89799805 11.0315625 -14.37255859 10.484375 C-12.77105984 8.75240908 -11.35051322 6.93336629 -10 5 C-7.0280615 6.12451727 -4.66559313 7.22293791 -2 9 C-2 9.66 -2 10.32 -2 11 C-1.01 10.67 -0.02 10.34 1 10 C0.505 5.05 0.505 5.05 0 0 Z " fill="#FAF9FA" transform="translate(130,92)"/>
<path d="M0 0 C1.65 0 3.3 0 5 0 C4.03727544 3.449763 3.1805903 5.78222934 0.875 8.5625 C-1.31410995 11.40834294 -1.35812075 12.50832271 -1 16 C-1 18.66666667 -1 21.33333333 -1 24 C-3.31 24.33 -5.62 24.66 -8 25 C-8.103125 25.78375 -8.20625 26.5675 -8.3125 27.375 C-9 30 -9 30 -12 32 C-14.12109375 32.23046875 -14.12109375 32.23046875 -16.4375 32.1875 C-17.19933594 32.18105469 -17.96117187 32.17460937 -18.74609375 32.16796875 C-21 32 -21 32 -23.22265625 31.42578125 C-23.80917969 31.28527344 -24.39570313 31.14476562 -25 31 C-25.495 31.495 -25.495 31.495 -26 32 C-28.35313555 32.07271741 -30.70833668 32.08370868 -33.0625 32.0625 C-34.35285156 32.05347656 -35.64320313 32.04445312 -36.97265625 32.03515625 C-37.97167969 32.02355469 -38.97070312 32.01195312 -40 32 C-40.33 34.64 -40.66 37.28 -41 40 C-42.98 40 -44.96 40 -47 40 C-46.34 39.01 -45.68 38.02 -45 37 C-45.30840599 34.84725052 -45.30840599 34.84725052 -46 33 C-47.65 33 -49.3 33 -51 33 C-51 34.65 -51 36.3 -51 38 C-55 38 -55 38 -57 37 C-57 35.68 -57 34.36 -57 33 C-60.96 32.505 -60.96 32.505 -65 32 C-65 31.01 -65 30.02 -65 29 C-55.76 28.67 -46.52 28.34 -37 28 C-36.67 26.68 -36.34 25.36 -36 24 C-36.845625 23.7525 -37.69125 23.505 -38.5625 23.25 C-42.38427474 21.86026373 -45.51868063 20.08879162 -49 18 C-49 16.35 -49 14.7 -49 13 C-48.34 12.67 -47.68 12.34 -47 12 C-47 12.99 -47 13.98 -47 15 C-44.03 15.495 -44.03 15.495 -41 16 C-40.731875 15.113125 -40.46375 14.22625 -40.1875 13.3125 C-39.08289181 10.23122452 -37.77150856 7.73778595 -36 5 C-34.68 5.33 -33.36 5.66 -32 6 C-33.41292095 10.8274799 -35.42974154 14.7162359 -38 19 C-36.02 19.66 -34.04 20.32 -32 21 C-31.773125 20.195625 -31.54625 19.39125 -31.3125 18.5625 C-29.66368412 14.08714261 -27.39455588 10.11278682 -25 6 C-24.01 6 -23.02 6 -22 6 C-22.55619669 10.6889493 -23.88182673 14.19924267 -26.0625 18.375 C-26.61035156 19.43460938 -27.15820312 20.49421875 -27.72265625 21.5859375 C-28.14417969 22.38257813 -28.56570312 23.17921875 -29 24 C-27.02 24.33 -25.04 24.66 -23 25 C-22.72929687 24.30390625 -22.45859375 23.6078125 -22.1796875 22.890625 C-20.91620389 19.79467178 -19.56066708 16.77010795 -18.125 13.75 C-17.63257813 12.69296875 -17.14015625 11.6359375 -16.6328125 10.546875 C-15 8 -15 8 -12.8046875 7.140625 C-12.20914063 7.09421875 -11.61359375 7.0478125 -11 7 C-11.54681024 12.00600922 -13.24140333 15.97181067 -15.5625 20.375 C-15.89185547 21.01566406 -16.22121094 21.65632813 -16.56054688 22.31640625 C-17.36639482 23.88138632 -18.18218493 25.44124021 -19 27 C-18.34 27.66 -17.68 28.32 -17 29 C-16.01 29 -15.02 29 -14 29 C-12.22123077 25.67084449 -10.45346651 22.33596195 -8.6875 19 C-8.18798828 18.06542969 -7.68847656 17.13085938 -7.17382812 16.16796875 C-4.37651545 10.8697474 -1.95710271 5.66424266 0 0 Z " fill="#9D5584" transform="translate(169,112)"/>
<path d="M0 0 C2.31 0 4.62 0 7 0 C6.49062708 5.80298263 5.33984328 10.45801472 2.9375 15.75 C2.62731934 16.44174316 2.31713867 17.13348633 1.99755859 17.84619141 C-2.98147157 28.6121323 -9.84591454 37.45347193 -18 46 C-18.58910156 46.67546875 -19.17820313 47.3509375 -19.78515625 48.046875 C-29.48767125 58.70897939 -46.51847539 68.9859836 -60.875 70.875 C-61.90625 70.91625 -62.9375 70.9575 -64 71 C-64 68.69 -64 66.38 -64 64 C-63.13375 64.2784375 -63.13375 64.2784375 -62.25 64.5625 C-59.74397932 65.0497818 -58.42630459 64.68239817 -56 64 C-53.33333333 64 -50.66666667 64 -48 64 C-46.83968404 59.93274061 -46.83968404 59.93274061 -48 56 C-42.72 56 -37.44 56 -32 56 C-32 53.36 -32 50.72 -32 48 C-29.69 48 -27.38 48 -25 48 C-24.67 45.36 -24.34 42.72 -24 40 C-23.05125 40.04125 -22.1025 40.0825 -21.125 40.125 C-17.89755144 40.34973818 -17.89755144 40.34973818 -16 38 C-15.83318891 34.91652174 -15.83318891 34.91652174 -16 32 C-13.36 32 -10.72 32 -8 32 C-8 26.72 -8 21.44 -8 16 C-6 17 -6 17 -5 18 C-4.67 17.34 -4.34 16.68 -4 16 C-2.68 16 -1.36 16 0 16 C0.85255201 11.92669597 0.93056242 9.03243714 0 5 C-0.0370279 3.3337447 -0.04759962 1.66598681 0 0 Z " fill="#E13453" transform="translate(200,136)"/>
<path d="M0 0 C10.56 0 21.12 0 32 0 C32 0.99 32 1.98 32 3 C34.64 3 37.28 3 40 3 C41 7.75 41 7.75 41 10 C43.31 10.33 45.62 10.66 48 11 C48 11.33 48 11.66 48 12 C42.30745761 12.02483991 36.61494724 12.04292602 30.92236328 12.05493164 C28.98843841 12.05994013 27.05451729 12.06674882 25.12060547 12.07543945 C22.3303942 12.08765831 19.54023328 12.09326329 16.75 12.09765625 C15.89446533 12.10281754 15.03893066 12.10797882 14.1574707 12.11329651 C9.01328727 12.1137702 4.09178021 11.74169581 -1 11 C-1.36923077 5.46153846 -1.36923077 5.46153846 0.5 3.125 C0.995 2.75375 1.49 2.3825 2 2 C1.34 1.34 0.68 0.68 0 0 Z " fill="#816099" transform="translate(72,141)"/>
<path d="M0 0 C0.99 0 1.98 0 3 0 C3 3.3 3 6.6 3 10 C5.64 10 8.28 10 11 10 C11 12.64 11 15.28 11 18 C6.05 18.33 1.1 18.66 -4 19 C-4.33 21.31 -4.66 23.62 -5 26 C-7.64 25.67 -10.28 25.34 -13 25 C-13 17.41 -13 9.82 -13 2 C-9.90755208 1.77213542 -6.81510417 1.54427083 -3.72265625 1.31640625 C-1.08890097 1.29581916 -1.08890097 1.29581916 0 0 Z " fill="#3A8DD5" transform="translate(101,46)"/>
<path d="M0 0 C2.375 0.875 2.375 0.875 4.375 3.875 C5.0642128 8.51152246 3.36720829 11.0408334 0.875 14.875 C0.14549524 16.01410646 -0.5836605 17.15343651 -1.3125 18.29296875 C-1.69148438 18.87739746 -2.07046875 19.46182617 -2.4609375 20.06396484 C-4.3967629 23.07569992 -6.25721894 26.13328814 -8.125 29.1875 C-9.29166667 31.08333333 -10.45833333 32.97916667 -11.625 34.875 C-16.375 34.125 -16.375 34.125 -18.625 31.875 C-17.00448791 27.79361148 -15.36840213 23.71892982 -13.71777344 19.6496582 C-13.1587905 18.26531721 -12.60405335 16.87925375 -12.05371094 15.49145508 C-11.26053919 13.49349267 -10.45215582 11.50228289 -9.640625 9.51171875 C-9.15883789 8.31248779 -8.67705078 7.11325684 -8.18066406 5.87768555 C-6.16890875 1.99466944 -4.53477617 -0.21594172 0 0 Z " fill="#F8F5F8" transform="translate(166.625,63.125)"/>
<path d="M0 0 C0.33 0 0.66 0 1 0 C1.16777857 3.60411581 1.33403188 7.2083004 1.5 10.8125 C1.57154297 12.34874023 1.57154297 12.34874023 1.64453125 13.91601562 C1.71220703 15.39038086 1.71220703 15.39038086 1.78125 16.89453125 C1.82314453 17.80050049 1.86503906 18.70646973 1.90820312 19.63989258 C1.97765497 21.42550689 2 23.21303553 2 25 C-0.64 25 -3.28 25 -6 25 C-6 24.34 -6 23.68 -6 23 C-8.64 23 -11.28 23 -14 23 C-14 23.66 -14 24.32 -14 25 C-16.66666667 25 -19.33333333 25 -22 25 C-22 24.34 -22 23.68 -22 23 C-24.97851562 23.43945312 -24.97851562 23.43945312 -27.95703125 23.87890625 C-30 24 -30 24 -33 23 C-35.0603378 23.39877506 -36.99808357 23.99940112 -39 24.625 C-41.31916425 25.0598433 -42.74122323 24.58291013 -45 24 C-45.99 24.33 -46.98 24.66 -48 25 C-48 24.34 -48 23.68 -48 23 C-49.98 23.33 -51.96 23.66 -54 24 C-54 23.34 -54 22.68 -54 22 C-55.2375 22.2475 -55.2375 22.2475 -56.5 22.5 C-60.41272317 23.05896045 -64.05183173 23.06807187 -68 23 C-68 22.01 -68 21.02 -68 20 C-68.66 19.67 -69.32 19.34 -70 19 C-69.15031143 18.98969254 -68.30062286 18.97938507 -67.42518616 18.96876526 C-59.43456059 18.87096311 -51.44401207 18.76847382 -43.45351505 18.66066074 C-39.34509583 18.60539417 -35.23666954 18.55196835 -31.12817383 18.50268555 C-27.16646874 18.45509687 -23.20485282 18.40275633 -19.24325371 18.34705925 C-17.72854253 18.32661069 -16.21380688 18.30790183 -14.69905281 18.29092598 C-12.58451574 18.26693701 -10.47014865 18.2368755 -8.35571289 18.20532227 C-7.14992081 18.18977798 -5.94412872 18.1742337 -4.70179749 18.15821838 C-2.08365624 18.30517617 -2.08365624 18.30517617 -1 17 C-0.76298761 14.14122091 -0.57780818 11.30116703 -0.4375 8.4375 C-0.37272461 7.22803711 -0.37272461 7.22803711 -0.30664062 5.99414062 C-0.20024738 3.99631195 -0.09959112 1.9981793 0 0 Z " fill="#AD4974" transform="translate(134,159)"/>
<path d="M0 0 C0.99 0 1.98 0 3 0 C2.45628039 4.53099675 1.28697545 7.83672603 -0.9375 11.8125 C-1.46214844 12.76769531 -1.98679688 13.72289063 -2.52734375 14.70703125 C-4 17 -4 17 -6 18 C-5.505 20.97 -5.505 20.97 -5 24 C-17.54 24 -30.08 24 -43 24 C-43 22.68 -43 21.36 -43 20 C-34.09 19.67 -25.18 19.34 -16 19 C-18.64 17.68 -21.28 16.36 -24 15 C-23.01 14.67 -22.02 14.34 -21 14 C-20.67 13.01 -20.34 12.02 -20 11 C-19.01 11.33 -18.02 11.66 -17 12 C-16.34 10.35 -15.68 8.7 -15 7 C-13.68 7 -12.36 7 -11 7 C-11.54723683 10.37462715 -12.0549 12.08235 -14 15 C-11.525 15.495 -11.525 15.495 -9 16 C-6.03 10.72 -3.06 5.44 0 0 Z " fill="#8B72A0" transform="translate(127,107)"/>
<path d="M0 0 C0.72822464 0.00424484 1.45644928 0.00848969 2.20674133 0.01286316 C4.53013252 0.02964142 6.85265275 0.0672902 9.17578125 0.10546875 C10.75194059 0.12051678 12.32811354 0.13420498 13.90429688 0.14648438 C17.76596002 0.1795419 21.62697303 0.23131681 25.48828125 0.29296875 C25.48828125 0.95296875 25.48828125 1.61296875 25.48828125 2.29296875 C27.79828125 2.29296875 30.10828125 2.29296875 32.48828125 2.29296875 C32.48828125 2.62296875 32.48828125 2.95296875 32.48828125 3.29296875 C23.52037039 4.21229676 14.57755233 4.60994939 5.5703125 4.8984375 C4.54035156 4.93582031 3.51039062 4.97320312 2.44921875 5.01171875 C1.05388916 5.0571582 1.05388916 5.0571582 -0.36962891 5.10351562 C-2.4930714 5.06030081 -2.4930714 5.06030081 -3.51171875 6.29296875 C-3.6108197 7.79556352 -3.64251576 9.30273586 -3.64453125 10.80859375 C-3.64582031 11.73027344 -3.64710937 12.65195313 -3.6484375 13.6015625 C-3.64457031 14.57222656 -3.64070313 15.54289062 -3.63671875 16.54296875 C-3.64058594 17.49816406 -3.64445312 18.45335937 -3.6484375 19.4375 C-3.64714844 20.36433594 -3.64585938 21.29117188 -3.64453125 22.24609375 C-3.64340332 23.09333008 -3.64227539 23.94056641 -3.64111328 24.81347656 C-3.5066494 27.39010899 -3.07761903 29.77873057 -2.51171875 32.29296875 C-4.49171875 32.29296875 -6.47171875 32.29296875 -8.51171875 32.29296875 C-9.68150328 27.49586915 -9.84484706 22.70377906 -10.07421875 17.79296875 C-10.11740234 16.95121094 -10.16058594 16.10945313 -10.20507812 15.2421875 C-10.28521816 13.62666618 -10.35802089 12.01075884 -10.42236328 10.39453125 C-10.49340496 8.72369311 -10.60327107 7.05451557 -10.7265625 5.38671875 C-10.51171875 3.29296875 -10.51171875 3.29296875 -9.46777344 1.68041992 C-6.50338936 -0.42225041 -3.49658233 -0.07664828 0 0 Z " fill="#4A7CC8" transform="translate(58.51171875,111.70703125)"/>
<path d="M0 0 C0.33333333 1.33333333 0.66666667 2.66666667 1 4 C1.20625 4.721875 1.4125 5.44375 1.625 6.1875 C1.74875 6.785625 1.8725 7.38375 2 8 C1.67 8.33 1.34 8.66 1 9 C0.95919217 10.99958364 0.95745644 13.00045254 1 15 C-1.31 15.33 -3.62 15.66 -6 16 C-6.75166913 23.69118596 -7.13690844 31.27227893 -7 39 C-10.465 39.495 -10.465 39.495 -14 40 C-14.33 50.23 -14.66 60.46 -15 71 C-15.33 71 -15.66 71 -16 71 C-20.77684883 46.57643419 -13.30322276 21.98446873 -1 1 C-0.67 0.67 -0.34 0.34 0 0 Z " fill="#1896EE" transform="translate(31,57)"/>
<path d="M0 0 C1.65 0 3.3 0 5 0 C5.99 2.475 5.99 2.475 7 5 C6.34 5.33 5.68 5.66 5 6 C9.29 6.33 13.58 6.66 18 7 C18 8.98 18 10.96 18 13 C17.34 13 16.68 13 16 13 C16 18.94 16 24.88 16 31 C15.67 31 15.34 31 15 31 C15 23.74 15 16.48 15 9 C-24.105 9.495 -24.105 9.495 -64 10 C-63.67 9.34 -63.34 8.68 -63 8 C-34.29 7.505 -34.29 7.505 -5 7 C-5.495 6.01 -5.495 6.01 -6 5 C-5.34 5 -4.68 5 -4 5 C-3.67 4.34 -3.34 3.68 -3 3 C-2.01 3.66 -1.02 4.32 0 5 C0 3.35 0 1.7 0 0 Z " fill="#BE91B3" transform="translate(118,145)"/>
<path d="M0 0 C14.19 0 28.38 0 43 0 C43 1.32 43 2.64 43 4 C29.14 4 15.28 4 1 4 C0.67 2.68 0.34 1.36 0 0 Z " fill="#9B5283" transform="translate(83,164)"/>
<path d="M0 0 C13.57438665 0.7144414 25.45841685 6.24632487 37 13 C37 13.99 37 14.98 37 16 C34.625 16.625 34.625 16.625 32 17 C31.34 16.34 30.68 15.68 30 15 C27.41645782 14.83312552 27.41645782 14.83312552 25 15 C25 13.68 25 12.36 25 11 C24.67 10.34 24.34 9.68 24 9 C19.69185156 7.98368605 15.53608185 7.89248896 11.125 7.9375 C9.97257813 7.94652344 8.82015625 7.95554687 7.6328125 7.96484375 C6.76398438 7.97644531 5.89515625 7.98804688 5 8 C4.731875 7.030625 4.46375 6.06125 4.1875 5.0625 C3.795625 4.051875 3.40375 3.04125 3 2 C2.01 1.67 1.02 1.34 0 1 C0 0.67 0 0.34 0 0 Z " fill="#5875BA" transform="translate(128,16)"/>
<path d="M0 0 C15.84 0 31.68 0 48 0 C43.16326995 2.41836503 38.23582784 3.73617949 33 5 C32.34 5.20625 31.68 5.4125 31 5.625 C28.68083575 6.0598433 27.25877677 5.58291013 25 5 C24.01 5.33 23.02 5.66 22 6 C22 5.34 22 4.68 22 4 C20.02 4.33 18.04 4.66 16 5 C16 4.34 16 3.68 16 3 C15.175 3.165 14.35 3.33 13.5 3.5 C9.58727683 4.05896045 5.94816827 4.06807187 2 4 C2 3.01 2 2.02 2 1 C1.34 0.67 0.68 0.34 0 0 Z " fill="#8E5581" transform="translate(64,178)"/>
<path d="M0 0 C2.5 1.5625 2.5 1.5625 4 4 C4 7.77684879 3.78395245 10.03513544 1.375 13 C-2.07663304 14.45331917 -4.42809484 13.92604949 -8 13 C-10.46324069 9.30513897 -10.38991688 7.36706908 -10 3 C-7.7773391 -1.05308751 -4.20075589 -0.5158823 0 0 Z " fill="#80669E" transform="translate(73,159)"/>
<path d="M0 0 C2.66010658 1.59606395 2.97557088 2.92976629 4 5.875 C4 9 4 9 2 11.9375 C-1 14 -1 14 -4.6875 14 C-8 13 -8 13 -10 10 C-10.53748871 3.98012647 -10.53748871 3.98012647 -8.9375 1.0625 C-5.88023824 -0.6140629 -3.4093712 -0.36528977 0 0 Z " fill="#6476B6" transform="translate(73,122)"/>
<path d="M0 0 C3.85276559 3.36256997 5.81247721 7.03984972 8 11.5625 C8.34740234 12.27196777 8.69480469 12.98143555 9.05273438 13.71240234 C16.78433008 29.74494673 16.78433008 29.74494673 16 37 C15.34 37 14.68 37 14 37 C14 35.35 14 33.7 14 32 C11.03 32.495 11.03 32.495 8 33 C8 27.39 8 21.78 8 16 C7.01 16 6.02 16 5 16 C5 15.34 5 14.68 5 14 C4.34 14 3.68 14 3 14 C-0.00559652 8.99067246 -0.29341888 5.67276511 0 0 Z " fill="#A94F7E" transform="translate(192,56)"/>
<path d="M0 0 C1.65 0 3.3 0 5 0 C4.03727544 3.449763 3.1805903 5.78222934 0.875 8.5625 C-1.31410995 11.40834294 -1.35812075 12.50832271 -1 16 C-1 18.66666667 -1 21.33333333 -1 24 C-3.31 24.33 -5.62 24.66 -8 25 C-8.1546875 26.175625 -8.1546875 26.175625 -8.3125 27.375 C-9 30 -9 30 -12 32 C-15.6875 31.625 -15.6875 31.625 -19 31 C-19 30.34 -19 29.68 -19 29 C-17.35 29 -15.7 29 -14 29 C-12.22123077 25.67084449 -10.45346651 22.33596195 -8.6875 19 C-8.18798828 18.06542969 -7.68847656 17.13085938 -7.17382812 16.16796875 C-4.37651545 10.8697474 -1.95710271 5.66424266 0 0 Z " fill="#B34977" transform="translate(169,112)"/>
<path d="M0 0 C1.32 0.33 2.64 0.66 4 1 C2.58707905 5.8274799 0.57025846 9.7162359 -2 14 C-0.02 14.66 1.96 15.32 4 16 C4.66 14.68 5.32 13.36 6 12 C5.45276317 15.37462715 4.9451 17.08235 3 20 C-1.14298667 19.40165275 -4.18194377 17.99335715 -7.8125 15.9375 C-8.78832031 15.38964844 -9.76414062 14.84179688 -10.76953125 14.27734375 C-11.50558594 13.85582031 -12.24164063 13.43429688 -13 13 C-13 11.35 -13 9.7 -13 8 C-12.34 7.67 -11.68 7.34 -11 7 C-11 7.99 -11 8.98 -11 10 C-8.03 10.495 -8.03 10.495 -5 11 C-4.731875 10.113125 -4.46375 9.22625 -4.1875 8.3125 C-3.08289181 5.23122452 -1.77150856 2.73778595 0 0 Z " fill="#8E5C8F" transform="translate(133,117)"/>
<path d="M0 0 C0.33 0 0.66 0 1 0 C1 4.62 1 9.24 1 14 C3.64 14 6.28 14 9 14 C9 16.31 9 18.62 9 21 C-8.34042553 12.42553191 -8.34042553 12.42553191 -16 8 C-15.34 7.01 -14.68 6.02 -14 5 C-13.34 5 -12.68 5 -12 5 C-12 5.66 -12 6.32 -12 7 C-11.01 6.67 -10.02 6.34 -9 6 C-6.3125 6.9375 -6.3125 6.9375 -4 8 C-3.71125 7.236875 -3.4225 6.47375 -3.125 5.6875 C-2 3 -2 3 0 0 Z " fill="#936294" transform="translate(159,90)"/>
<path d="M0 0 C0.66 0 1.32 0 2 0 C2.25523438 0.90492187 2.25523438 0.90492187 2.515625 1.828125 C3.93548248 6.51063372 5.03218406 9.85311149 9 13 C7.9275 13.28875 6.855 13.5775 5.75 13.875 C1.67592022 15.04380516 1.67592022 15.04380516 -2 17 C-2.70215533 18.31499054 -3.37304882 19.64753764 -4 21 C-4.17015625 20.39671875 -4.3403125 19.7934375 -4.515625 19.171875 C-5.93548248 14.48936628 -7.03218406 11.14688851 -11 8 C-9.741875 7.608125 -8.48375 7.21625 -7.1875 6.8125 C-3.22841724 5.36013807 -1.87001933 3.84392862 0 0 Z " fill="#ECF5F8" transform="translate(78,75)"/>
<path d="M0 0 C8 0 8 0 11 1 C12 3 12 3 12 6 C26.36083753 8.05416833 40.50898304 8.2288982 55 8 C42.34149908 14.76954614 23.41500473 11.22229762 10 8 C6.55816339 6.86088682 3.26272143 5.57925337 0 4 C0 2.68 0 1.36 0 0 Z " fill="#CC5579" transform="translate(77,200)"/>
<path d="M0 0 C0.18175781 1.24716797 0.18175781 1.24716797 0.3671875 2.51953125 C0.53476563 3.60621094 0.70234375 4.69289063 0.875 5.8125 C1.11863281 7.43091797 1.11863281 7.43091797 1.3671875 9.08203125 C1.85132338 12.17321793 1.85132338 12.17321793 4 15 C3.32453125 14.98839844 2.6490625 14.97679687 1.953125 14.96484375 C1.06109375 14.95582031 0.1690625 14.94679688 -0.75 14.9375 C-1.63171875 14.92589844 -2.5134375 14.91429687 -3.421875 14.90234375 C-5.7818838 14.99173802 -7.74498524 15.33087179 -10 16 C-10.1953125 14.046875 -10.390625 12.09375 -10.5859375 10.140625 C-11.03532965 7.8173524 -11.85774238 6.0616357 -13 4 C-12.38511719 3.87882812 -11.77023438 3.75765625 -11.13671875 3.6328125 C-10.32847656 3.46523438 -9.52023438 3.29765625 -8.6875 3.125 C-7.88699219 2.96257813 -7.08648437 2.80015625 -6.26171875 2.6328125 C-4.01441179 2.00403232 -2.19947048 0 0 0 Z " fill="#F1F7F6" transform="translate(103,48)"/>
<path d="M0 0 C1.32 0 2.64 0 4 0 C4.09872451 4.14642936 3.7093859 7.92103107 3 12 C3 13.32 3 14.64 3 16 C0.69 16.66 -1.62 17.32 -4 18 C-4 19.98 -4 21.96 -4 24 C-5.98 24 -7.96 24 -10 24 C-9.4448045 19.72807908 -7.95228987 17.13257854 -5.5 13.625 C-2.57189555 9.20296471 -1.22850788 6.25568135 -1 1 C-0.67 0.67 -0.34 0.34 0 0 Z " fill="#896196" transform="translate(172,64)"/>
<path d="M0 0 C0.33 0.99 0.66 1.98 1 3 C1.66 3.33 2.32 3.66 3 4 C2.34 6.31 1.68 8.62 1 11 C0.4225 10.814375 -0.155 10.62875 -0.75 10.4375 C-2.94807372 9.80640672 -2.94807372 9.80640672 -4.75 10.65625 C-8.18931621 11.18170109 -10.23082898 9.67053674 -13.25 8.0625 C-14.32765625 7.49660156 -15.4053125 6.93070312 -16.515625 6.34765625 C-17.33546875 5.90292969 -18.1553125 5.45820312 -19 5 C-18.34 4.01 -17.68 3.02 -17 2 C-16.01 2.66 -15.02 3.32 -14 4 C-11.32854463 3.19838209 -11.32854463 3.19838209 -9 2 C-8.67 2.66 -8.34 3.32 -8 4 C-7.67 3.34 -7.34 2.68 -7 2 C-6.21625 2.04125 -5.4325 2.0825 -4.625 2.125 C-1.83883881 2.28728734 -1.83883881 2.28728734 0 0 Z " fill="#7D659F" transform="translate(148,86)"/>
<path d="M0 0 C6.21127026 -0.12347317 12.42182856 -0.21427988 18.6340332 -0.2746582 C20.74776652 -0.29982363 22.86141265 -0.33395926 24.97485352 -0.37719727 C28.01079798 -0.43775941 31.04559362 -0.46618909 34.08203125 -0.48828125 C35.02899368 -0.51408768 35.97595612 -0.5398941 36.95161438 -0.56648254 C39.40289767 -0.5675337 41.60781654 -0.53616465 44 0 C45.96484375 2.43164063 45.96484375 2.43164063 47 5 C49.45192311 6.64562546 49.45192311 6.64562546 52.1875 7.8125 C53.08855469 8.23144531 53.98960938 8.65039062 54.91796875 9.08203125 C55.60503906 9.38496094 56.29210937 9.68789062 57 10 C57 10.33 57 10.66 57 11 C47.43 11 37.86 11 28 11 C28 10.67 28 10.34 28 10 C28.89203125 9.95101562 29.7840625 9.90203125 30.703125 9.8515625 C32.45882812 9.73941406 32.45882812 9.73941406 34.25 9.625 C35.99023438 9.52058594 35.99023438 9.52058594 37.765625 9.4140625 C40.70694334 9.03751692 42.49949011 8.5225877 45 7 C45 6.34 45 5.68 45 5 C44.34 5 43.68 5 43 5 C43 3.68 43 2.36 43 1 C28.81 1 14.62 1 0 1 C0 0.67 0 0.34 0 0 Z " fill="#D4D5E9" transform="translate(56,116)"/>
<path d="M0 0 C2.31 0 4.62 0 7 0 C7 5.28 7 10.56 7 16 C2.71 16 -1.58 16 -6 16 C-5 12 -5 12 -2.125 9.8125 C1 8 1 8 4 7 C3.34 6.401875 2.68 5.80375 2 5.1875 C0 3 0 3 0 0 Z " fill="#4F80C5" transform="translate(81,80)"/>
<path d="M0 0 C-0.33 2.64 -0.66 5.28 -1 8 C-4.12498063 8.02895976 -7.2499269 8.04678483 -10.375 8.0625 C-11.26445313 8.07087891 -12.15390625 8.07925781 -13.0703125 8.08789062 C-14.34648438 8.09272461 -14.34648438 8.09272461 -15.6484375 8.09765625 C-16.82672119 8.10551147 -16.82672119 8.10551147 -18.02880859 8.11352539 C-20 8 -20 8 -22 7 C-22 6.34 -22 5.68 -22 5 C-19.46148538 4.15583837 -16.91989146 3.32452701 -14.375 2.5 C-13.66214844 2.26152344 -12.94929688 2.02304687 -12.21484375 1.77734375 C-8.00693976 0.42618192 -4.47763202 -0.28250044 0 0 Z " fill="#1E96E9" transform="translate(97,16)"/>
<path d="M0 0 C0 2.31 0 4.62 0 7 C-2.64 7.33 -5.28 7.66 -8 8 C-8 10.31 -8 12.62 -8 15 C-10.31 15 -12.62 15 -15 15 C-15.33 17.64 -15.66 20.28 -16 23 C-18.31 23 -20.62 23 -23 23 C-19.93874773 16.28307754 -7.93685051 0 0 0 Z " fill="#0D9CF0" transform="translate(56,33)"/>
<path d="M0 0 C0.99 0 1.98 0 3 0 C3.33 0.99 3.66 1.98 4 3 C5.32 3.33 6.64 3.66 8 4 C8 10.6 8 17.2 8 24 C7.34 24 6.68 24 6 24 C2.88912563 16.0334066 0.21902439 8.64150758 0 0 Z " fill="#4780C8" transform="translate(16,128)"/>
<path d="M0 0 C2.97 0 5.94 0 9 0 C9 2.64 9 5.28 9 8 C4.05 8.33 -0.9 8.66 -6 9 C-6.33 11.31 -6.66 13.62 -7 16 C-8.65 16 -10.3 16 -12 16 C-12.375 13.8125 -12.375 13.8125 -12 11 C-9.30231164 7.88728266 -7.71631236 6.22326014 -3.59765625 5.6875 C-1.37604972 5.6875 0.790154 5.7790154 3 6 C2.2575 4.7934375 2.2575 4.7934375 1.5 3.5625 C0 1 0 1 0 0 Z " fill="#447EC8" transform="translate(103,56)"/>
<path d="M0 0 C0.99 0.66 1.98 1.32 3 2 C0.375 6.875 0.375 6.875 -3 8 C-2.87625 9.8871875 -2.87625 9.8871875 -2.75 11.8125 C-2.78446958 15.72824425 -2.78446958 15.72824425 -4.4375 17.8125 C-9.09755781 19.97203898 -13.81996331 22 -19 22 C-18.21496094 21.24976563 -17.42992187 20.49953125 -16.62109375 19.7265625 C-10.2906326 13.58952092 -4.7192133 7.5108606 0 0 Z " fill="#F7F0F2" transform="translate(195,165)"/>
<path d="M0 0 C2.64 0 5.28 0 8 0 C8 0.99 8 1.98 8 3 C7.34 3 6.68 3 6 3 C5.814375 3.7425 5.62875 4.485 5.4375 5.25 C3.39087334 9.16528579 0.9124945 10.04375275 -3 12 C-2.01 13.32 -1.02 14.64 0 16 C-2.31 16 -4.62 16 -7 16 C-7.79953138 12.71303767 -8.09658936 11.28976808 -7 8 C-4.69 8 -2.38 8 0 8 C0 5.36 0 2.72 0 0 Z " fill="#3C86D1" transform="translate(72,72)"/>
<path d="M0 0 C2.64 0.33 5.28 0.66 8 1 C1.21146685 6.52780557 -7.32253327 9.49937692 -16 10 C-16 7.69 -16 5.38 -16 3 C-15.13375 3.2784375 -15.13375 3.2784375 -14.25 3.5625 C-11.74397932 4.0497818 -10.42630459 3.68239817 -8 3 C-5.33333333 3 -2.66666667 3 0 3 C0 2.01 0 1.02 0 0 Z " fill="#DB3758" transform="translate(152,197)"/>
<path d="M0 0 C0.33 0 0.66 0 1 0 C1.02505615 0.60996826 1.0501123 1.21993652 1.07592773 1.84838867 C1.1924058 4.62827898 1.31489632 7.4078734 1.4375 10.1875 C1.47681641 11.14720703 1.51613281 12.10691406 1.55664062 13.09570312 C1.59853516 14.02705078 1.64042969 14.95839844 1.68359375 15.91796875 C1.72025146 16.77156982 1.75690918 17.6251709 1.79467773 18.50463867 C2.00531094 21.06454594 2.44841536 23.49333243 3 26 C1.02 26 -0.96 26 -3 26 C-3.85298376 22.32612505 -4.10789471 18.9552607 -4.0625 15.1875 C-4.05347656 14.21167969 -4.04445312 13.23585937 -4.03515625 12.23046875 C-4.02355469 11.49441406 -4.01195312 10.75835937 -4 10 C-2.68 10 -1.36 10 0 10 C0 6.7 0 3.4 0 0 Z " fill="#5775B9" transform="translate(53,118)"/>
<path d="M0 0 C3.63 0.33 7.26 0.66 11 1 C11 1.99 11 2.98 11 4 C8.69 4.33 6.38 4.66 4 5 C3.22678118 7.98241547 2.58803797 10.97580475 2 14 C-2.04161955 12.65515286 -4.38678154 10.9494838 -7.3125 7.875 C-8.00988281 7.15054688 -8.70726562 6.42609375 -9.42578125 5.6796875 C-10.20501953 4.84824219 -10.20501953 4.84824219 -11 4 C-10.34 3.67 -9.68 3.34 -9 3 C-8.01 3.66 -7.02 4.32 -6 5 C-6 5.66 -6 6.32 -6 7 C-4.35 7.33 -2.7 7.66 -1 8 C-0.67 7.01 -0.34 6.02 0 5 C0.66 4.34 1.32 3.68 2 3 C1.34 2.67 0.68 2.34 0 2 C0 1.34 0 0.68 0 0 Z " fill="#81629A" transform="translate(53,177)"/>
<path d="M0 0 C0.33 0.66 0.66 1.32 1 2 C0.34 2 -0.32 2 -1 2 C-1 2.66 -1 3.32 -1 4 C-5.10415189 4.02898097 -9.20827753 4.0467922 -13.3125 4.0625 C-14.47974609 4.07087891 -15.64699219 4.07925781 -16.84960938 4.08789062 C-18.52700195 4.09272461 -18.52700195 4.09272461 -20.23828125 4.09765625 C-21.7857605 4.10551147 -21.7857605 4.10551147 -23.36450195 4.11352539 C-26 4 -26 4 -29 3 C-29 2.34 -29 1.68 -29 1 C-19.43 0.67 -9.86 0.34 0 0 Z " fill="#73629D" transform="translate(113,126)"/>
<path d="M0 0 C2.64 0 5.28 0 8 0 C8 0.66 8 1.32 8 2 C8.99 2 9.98 2 11 2 C11 1.34 11 0.68 11 0 C12.65 0 14.3 0 16 0 C15.814375 0.763125 15.62875 1.52625 15.4375 2.3125 C14.77180827 5.08967375 14.77180827 5.08967375 16 8 C18.01508358 8.73323796 18.01508358 8.73323796 20 9 C16.85092267 9.97729986 15.36339007 10.1417479 12.24609375 8.92578125 C11.31925781 8.39339844 10.39242187 7.86101562 9.4375 7.3125 C8.04337891 6.53326172 8.04337891 6.53326172 6.62109375 5.73828125 C4.06348429 4.0421021 2.07962239 2.24599218 0 0 Z " fill="#95598B" transform="translate(56,192)"/>
<path d="M0 0 C3.3 0.66 6.6 1.32 10 2 C9.34 5.3 8.68 8.6 8 12 C3.545 11.01 3.545 11.01 -1 10 C-0.67 6.7 -0.34 3.4 0 0 Z " fill="#FBFCFA" transform="translate(118,83)"/>
<path d="M0 0 C10.96478873 0.94481173 10.96478873 0.94481173 16 3 C16.66 4.65 17.32 6.3 18 8 C13.71 8 9.42 8 5 8 C4.34 6.02 3.68 4.04 3 2 C2.01 1.67 1.02 1.34 0 1 C0 0.67 0 0.34 0 0 Z " fill="#3F80CD" transform="translate(128,16)"/>
<path d="M0 0 C0.33 0 0.66 0 1 0 C1.125 4.75 1.125 4.75 0 7 C1.32 7.33 2.64 7.66 4 8 C2.35 11.3 0.7 14.6 -1 18 C-2.98 17.67 -4.96 17.34 -7 17 C-5.24009216 11.08030998 -2.60305395 5.58365008 0 0 Z " fill="#F1E9F0" transform="translate(147,119)"/>
<path d="M0 0 C0.66 0.33 1.32 0.66 2 1 C1.67 1.33 1.34 1.66 1 2 C0.63239269 4.32817964 0.29758419 6.6618385 0 9 C-1.423125 8.9690625 -1.423125 8.9690625 -2.875 8.9375 C-5.90666283 8.77448174 -5.90666283 8.77448174 -8 10 C-10.3400417 9.71758117 -12.67504723 9.38749213 -15 9 C-12.41676876 6.0117325 -9.44464763 4.50570453 -5.9375 2.75 C-4.87402344 2.20859375 -3.81054688 1.6671875 -2.71484375 1.109375 C-1.81894531 0.74328125 -0.92304687 0.3771875 0 0 Z " fill="#0D99F4" transform="translate(72,23)"/>
<path d="M0 0 C0.33 0 0.66 0 1 0 C1.16777857 3.60411581 1.33403188 7.2083004 1.5 10.8125 C1.54769531 11.83666016 1.59539062 12.86082031 1.64453125 13.91601562 C1.68964844 14.89892578 1.73476562 15.88183594 1.78125 16.89453125 C1.8440918 18.25348511 1.8440918 18.25348511 1.90820312 19.63989258 C1.97765497 21.42550689 2 23.21303553 2 25 C-0.64 25 -3.28 25 -6 25 C-6 24.34 -6 23.68 -6 23 C-8.6739124 22.10869587 -11.23723823 21.52268466 -14 21 C-14 20.67 -14 20.34 -14 20 C-13.22914062 20.03480469 -12.45828125 20.06960937 -11.6640625 20.10546875 C-10.15972656 20.14607422 -10.15972656 20.14607422 -8.625 20.1875 C-7.62726563 20.22230469 -6.62953125 20.25710937 -5.6015625 20.29296875 C-4.31378906 20.14794922 -4.31378906 20.14794922 -3 20 C-1.0243438 17.03651571 -0.73623141 16.31979627 -0.5859375 12.98828125 C-0.52792969 11.85229492 -0.52792969 11.85229492 -0.46875 10.69335938 C-0.42234375 9.51483398 -0.42234375 9.51483398 -0.375 8.3125 C-0.31699219 7.11657227 -0.31699219 7.11657227 -0.2578125 5.89648438 C-0.16367506 3.93136525 -0.08075368 1.9657146 0 0 Z " fill="#BE446E" transform="translate(134,159)"/>
<path d="M0 0 C0.15210938 0.61488281 0.30421875 1.22976562 0.4609375 1.86328125 C0.82608733 3.3106505 1.21491836 4.75221425 1.625 6.1875 C1.74875 6.785625 1.8725 7.38375 2 8 C1.67 8.33 1.34 8.66 1 9 C0.95919217 10.99958364 0.95745644 13.00045254 1 15 C-0.11375 15.12375 -1.2275 15.2475 -2.375 15.375 C-6.03103677 15.6465813 -6.03103677 15.6465813 -8 18 C-7.47729735 13.09690194 -5.9987369 9.81611493 -3.4375 5.625 C-2.79683594 4.56539062 -2.15617187 3.50578125 -1.49609375 2.4140625 C-1.00238281 1.61742187 -0.50867188 0.82078125 0 0 Z " fill="#169BEE" transform="translate(31,57)"/>
<path d="M0 0 C0.99 0 1.98 0 3 0 C2.4530062 4.50269285 1.30781065 7.84325974 -0.875 11.8125 C-1.38804688 12.76769531 -1.90109375 13.72289063 -2.4296875 14.70703125 C-4 17 -4 17 -7 18 C-6.73975837 10.97347606 -4.51041177 5.47532573 0 0 Z " fill="#866599" transform="translate(127,107)"/>
<path d="M0 0 C3.58660517 5.37990775 3.19276195 11.47907598 3.1875 17.75 C3.1884668 18.93891846 3.1884668 18.93891846 3.18945312 20.15185547 C3.13732427 25.94408189 2.5751388 31.40263175 1 37 C0.67 37 0.34 37 0 37 C0 24.79 0 12.58 0 0 Z " fill="#CB5679" transform="translate(208,95)"/>
<path d="M0 0 C2.1519437 3.22791555 2.20086443 4.28400809 2 8 C1.01 8.495 1.01 8.495 0 9 C-0.33 19.23 -0.66 29.46 -1 40 C-1.33 40 -1.66 40 -2 40 C-4.62744053 26.56615084 -3.02005499 13.19476404 0 0 Z " fill="#4CA0E1" transform="translate(17,88)"/>
<path d="M0 0 C3.42409111 3.06679465 5.27342685 6.11716523 7.25 10.25 C7.77078125 11.32765625 8.2915625 12.4053125 8.828125 13.515625 C9.21484375 14.33546875 9.6015625 15.1553125 10 16 C9.34 16.99 8.68 17.98 8 19 C8 18.01 8 17.02 8 16 C7.01 16 6.02 16 5 16 C5 15.34 5 14.68 5 14 C4.34 14 3.68 14 3 14 C-0.00559652 8.99067246 -0.29341888 5.67276511 0 0 Z " fill="#8F5B8C" transform="translate(192,56)"/>
<path d="M0 0 C0.33 0 0.66 0 1 0 C0.5188509 5.77378925 -1.18467181 9.95859836 -4 15 C-2.35 14.67 -0.7 14.34 1 14 C-0.32 16.64 -1.64 19.28 -3 22 C-7 21 -7 21 -9 19 C-6.03 12.73 -3.06 6.46 0 0 Z " fill="#F8EEF5" transform="translate(158,120)"/>
<path d="M0 0 C1.65 0.33 3.3 0.66 5 1 C4.49339844 1.79664062 4.49339844 1.79664062 3.9765625 2.609375 C3.53054687 3.31578125 3.08453125 4.0221875 2.625 4.75 C2.18414062 5.44609375 1.74328125 6.1421875 1.2890625 6.859375 C0.08119094 8.86517383 -0.98387737 10.89178296 -2 13 C-4.97 12.505 -4.97 12.505 -8 12 C-7.37240135 9.07120629 -6.41377341 6.63904371 -5 4 C-3.68 4.33 -2.36 4.66 -1 5 C-0.67 3.35 -0.34 1.7 0 0 Z " fill="#FAF5FA" transform="translate(130,115)"/>
<path d="M0 0 C1.65 0 3.3 0 5 0 C3.72754454 4.55963207 1.9682355 7.36151777 -1 11 C-1.165 11.680625 -1.33 12.36125 -1.5 13.0625 C-2.22458215 15.87025583 -3.82881715 17.15778425 -6 19 C-6.66 19 -7.32 19 -8 19 C-6.66617336 14.27097827 -4.60355296 10.34725575 -2.12109375 6.1484375 C-1.04475736 4.08577194 -0.45736808 2.27142349 0 0 Z " fill="#AA527E" transform="translate(169,112)"/>
<path d="M0 0 C6.6 0 13.2 0 20 0 C20 0.66 20 1.32 20 2 C22.31 2 24.62 2 27 2 C27 2.33 27 2.66 27 3 C17.98175113 4.06996173 9.06335876 4.10234659 0 4 C0 3.67 0 3.34 0 3 C2.64 3 5.28 3 8 3 C8 2.34 8 1.68 8 1 C5.36 1 2.72 1 0 1 C0 0.67 0 0.34 0 0 Z " fill="#5873B8" transform="translate(64,112)"/>
<path d="M0 0 C-0.50603992 2.16874252 -0.99983813 3.99967627 -2 6 C-1.34 6.33 -0.68 6.66 0 7 C0 8.98 0 10.96 0 13 C-0.99 13 -1.98 13 -3 13 C-3.86375896 11.38007835 -4.71575854 9.75388139 -5.5625 8.125 C-6.27599609 6.76761719 -6.27599609 6.76761719 -7.00390625 5.3828125 C-7.33261719 4.59648437 -7.66132813 3.81015625 -8 3 C-6.23110084 -0.53779831 -3.70375662 0 0 0 Z " fill="#5E78B8" transform="translate(32,152)"/>
<path d="M0 0 C8 0 8 0 11 1 C12.24546405 3.49092811 11.7767578 4.41080733 11 7 C6.94393835 6.53199289 3.53411321 6.12046792 0 4 C0 2.68 0 1.36 0 0 Z " fill="#A4547E" transform="translate(77,200)"/>
<path d="M0 0 C2.475 0.99 2.475 0.99 5 2 C4.01 2.66 3.02 3.32 2 4 C2.99 4.33 3.98 4.66 5 5 C4.67 5.66 4.34 6.32 4 7 C3.34 7 2.68 7 2 7 C1.67 8.32 1.34 9.64 1 11 C-1.4375 10.1875 -1.4375 10.1875 -4 9 C-4.33 8.01 -4.66 7.02 -5 6 C-3.6875 3.8125 -3.6875 3.8125 -2 2 C-1.34 2 -0.68 2 0 2 C0 1.34 0 0.68 0 0 Z " fill="#7F69A5" transform="translate(51,175)"/>
<path d="M0 0 C6.6 0 13.2 0 20 0 C16.32262605 1.83868698 12.95748358 3.04061004 9 4 C8.360625 4.226875 7.72125 4.45375 7.0625 4.6875 C4.25622394 5.11269334 2.52270768 4.19127863 0 3 C0 2.01 0 1.02 0 0 Z " fill="#A05386" transform="translate(88,179)"/>
<path d="M0 0 C2.97 0 5.94 0 9 0 C8.01 0.495 8.01 0.495 7 1 C6.53348793 3.12576782 6.53348793 3.12576782 6.375 5.5625 C6.30023438 6.38878906 6.22546875 7.21507813 6.1484375 8.06640625 C6.09945312 8.70449219 6.05046875 9.34257813 6 10 C2.15625 9.21875 2.15625 9.21875 0.75 7.25 C-0.0957901 4.71262971 -0.14764761 2.65765704 0 0 Z " fill="#5F72B5" transform="translate(112,80)"/>
<path d="M0 0 C2.97 0 5.94 0 9 0 C8.67 3.3 8.34 6.6 8 10 C6.02 10 4.04 10 2 10 C2.66 9.01 3.32 8.02 4 7 C4.16713569 4.37468476 4.16713569 4.37468476 4 2 C2.68 2 1.36 2 0 2 C0 1.34 0 0.68 0 0 Z " fill="#A05387" transform="translate(120,142)"/>
<path d="M0 0 C0.33 0 0.66 0 1 0 C1.2236337 1.41433206 1.42826476 2.83167618 1.625 4.25 C1.74101563 5.03890625 1.85703125 5.8278125 1.9765625 6.640625 C2.00339416 9.34167893 1.30166242 10.67489308 0 13 C0 13.66 0 14.32 0 15 C-1.32 14.67 -2.64 14.34 -4 14 C-4 10.04 -4 6.08 -4 2 C-3.01 2.33 -2.02 2.66 -1 3 C-0.67 2.01 -0.34 1.02 0 0 Z " fill="#4C8FD6" transform="translate(92,56)"/>
<path d="M0 0 C0.99 0 1.98 0 3 0 C2.48474397 5.28137429 0.74522883 8.57221156 -2 13 C-4 11 -4 11 -5 9 C-4.00390625 6.8359375 -4.00390625 6.8359375 -2.5625 4.375 C-2.08941406 3.55773437 -1.61632812 2.74046875 -1.12890625 1.8984375 C-0.75636719 1.27195312 -0.38382813 0.64546875 0 0 Z " fill="#955884" transform="translate(144,118)"/>
<path d="M0 0 C1.65 0 3.3 0 5 0 C4.01 0.66 3.02 1.32 2 2 C3.32 2.66 4.64 3.32 6 4 C0.40224495 4.97352262 -5.32562999 5.61204357 -11 5 C-11.66 4.34 -12.32 3.68 -13 3 C-12.21625 3.04125 -11.4325 3.0825 -10.625 3.125 C-7.83883881 3.28728734 -7.83883881 3.28728734 -6 1 C-2.875 1.375 -2.875 1.375 0 2 C0 1.34 0 0.68 0 0 Z " fill="#1396F3" transform="translate(88,19)"/>
<path d="M0 0 C1.65 0 3.3 0 5 0 C5.66 1.65 6.32 3.3 7 5 C3.09971775 7.60018816 -0.47434569 7.15085514 -5 7 C-5.33 6.34 -5.66 5.68 -6 5 C-5.34 5 -4.68 5 -4 5 C-3.67 4.34 -3.34 3.68 -3 3 C-2.01 3.66 -1.02 4.32 0 5 C0 3.35 0 1.7 0 0 Z " fill="#C194B6" transform="translate(118,145)"/>
<path d="M0 0 C1.32 0 2.64 0 4 0 C4 0.66 4 1.32 4 2 C6.64 2 9.28 2 12 2 C12 4.31 12 6.62 12 9 C10.18146744 8.07425608 8.37031117 7.13401005 6.5625 6.1875 C5.55316406 5.66542969 4.54382813 5.14335938 3.50390625 4.60546875 C1 3 1 3 0 0 Z " fill="#985987" transform="translate(156,102)"/>
<path d="M0 0 C0.99 0 1.98 0 3 0 C3.33 0.99 3.66 1.98 4 3 C6.01508358 3.73323796 6.01508358 3.73323796 8 4 C7.67 5.32 7.34 6.64 7 8 C7 7.01 7 6.02 7 5 C6.34 5 5.68 5 5 5 C5 6.65 5 8.3 5 10 C3.68 10 2.36 10 1 10 C0.67 6.7 0.34 3.4 0 0 Z " fill="#3984D2" transform="translate(16,128)"/>
<path d="M0 0 C0.71285156 0.00193359 1.42570312 0.00386719 2.16015625 0.00585938 C6.94378987 0.04521285 11.53606031 0.33934339 16.25 1.125 C16.25 1.455 16.25 1.785 16.25 2.125 C12.33414605 2.3510865 8.41740577 2.55278506 4.5 2.75 C2.83324219 2.84667969 2.83324219 2.84667969 1.1328125 2.9453125 C-0.47207031 3.02265625 -0.47207031 3.02265625 -2.109375 3.1015625 C-3.58615723 3.18011475 -3.58615723 3.18011475 -5.09277344 3.26025391 C-7.8596638 3.11941807 -9.40509503 2.55042979 -11.75 1.125 C-7.88564241 -0.12992025 -4.0163396 -0.02598371 0 0 Z " fill="#479EE0" transform="translate(111.75,13.875)"/>
<path d="M0 0 C1.32 0.33 2.64 0.66 4 1 C2.84414715 4.91211733 1.64465038 7.8745041 -1 11 C-1.33 10.01 -1.66 9.02 -2 8 C-2.66 7.67 -3.32 7.34 -4 7 C-2.68 4.69 -1.36 2.38 0 0 Z " fill="#966794" transform="translate(133,117)"/>
<path d="M0 0 C2.31 0.66 4.62 1.32 7 2 C7.33 3.98 7.66 5.96 8 8 C6.68 8.33 5.36 8.66 4 9 C0 4.5 0 4.5 0 0 Z " fill="#7C70A5" transform="translate(124,94)"/>
<path d="M0 0 C2.475 0.495 2.475 0.495 5 1 C5 1.33 5 1.66 5 2 C12.92 2.33 20.84 2.66 29 3 C29 3.33 29 3.66 29 4 C19.76 4 10.52 4 1 4 C0.67 2.68 0.34 1.36 0 0 Z " fill="#A0749A" transform="translate(83,164)"/>
<path d="M0 0 C5.06998019 0.65419099 9.41990777 2.8546409 14 5 C11 7 11 7 9 7 C8.67 6.34 8.34 5.68 8 5 C5.65092125 4.31068656 5.65092125 4.31068656 2.9375 3.875 C2.01839844 3.70742188 1.09929687 3.53984375 0.15234375 3.3671875 C-0.55792969 3.24601562 -1.26820313 3.12484375 -2 3 C-1.34 2.01 -0.68 1.02 0 0 Z " fill="#5481C0" transform="translate(144,20)"/>
<path d="M0 0 C0.99 0.33 1.98 0.66 3 1 C1.71700242 3.86207152 0.469364 6.0245088 -2 8 C-2.99 8 -3.98 8 -5 8 C-4.67 6.35 -4.34 4.7 -4 3 C-3.01 2.67 -2.02 2.34 -1 2 C-0.67 1.34 -0.34 0.68 0 0 Z " fill="#E22A4A" transform="translate(182,176)"/>
<path d="M0 0 C2.16874252 0.50603992 3.99967627 0.99983813 6 2 C6 3.65 6 5.3 6 7 C4.68 7.33 3.36 7.66 2 8 C2.66 7.67 3.32 7.34 4 7 C2.35 6.67 0.7 6.34 -1 6 C-1 5.34 -1 4.68 -1 4 C-1.99 3.67 -2.98 3.34 -4 3 C-2.02 3 -0.04 3 2 3 C2 2.34 2 1.68 2 1 C1.34 0.67 0.68 0.34 0 0 Z " fill="#616CAC" transform="translate(70,126)"/>
<path d="M0 0 C3.68754757 0.49831724 5.60490662 1.10067643 8 4 C7.34 4 6.68 4 6 4 C5.67 4.99 5.34 5.98 5 7 C4.67 6.34 4.34 5.68 4 5 C3.34 5 2.68 5 2 5 C1.67 5.99 1.34 6.98 1 8 C0.67 5.36 0.34 2.72 0 0 Z " fill="#F1EDF4" transform="translate(130,92)"/>
<path d="M0 0 C4.95 0 9.9 0 15 0 C14.67 0.66 14.34 1.32 14 2 C9.31604754 3.14242743 4.78644729 3.08252495 0 3 C0 2.01 0 1.02 0 0 Z " fill="#8F5A93" transform="translate(66,179)"/>
<path d="M0 0 C1.65 0 3.3 0 5 0 C5 0.99 5 1.98 5 3 C5.66 3 6.32 3 7 3 C6.34 4.32 5.68 5.64 5 7 C2.525 6.01 2.525 6.01 0 5 C0 3.35 0 1.7 0 0 Z " fill="#B9B6D4" transform="translate(65,145)"/>
<path d="M0 0 C1.98 0 3.96 0 6 0 C6.33 2.97 6.66 5.94 7 9 C6.34 9 5.68 9 5 9 C5 7.35 5 5.7 5 4 C3.35 4 1.7 4 0 4 C0 2.68 0 1.36 0 0 Z " fill="#B2507D" transform="translate(201,84)"/>
<path d="M0 0 C-0.25 1.875 -0.25 1.875 -1 4 C-3.0625 5.25 -3.0625 5.25 -5 6 C-5.99 5.01 -6.98 4.02 -8 3 C-6.23110084 -0.53779831 -3.70375662 0 0 0 Z " fill="#5577BF" transform="translate(32,152)"/>
<path d="M0 0 C1.32 0 2.64 0 4 0 C4 1.98 4 3.96 4 6 C1.69 6 -0.62 6 -3 6 C-3 5.01 -3 4.02 -3 3 C-2.34 2.67 -1.68 2.34 -1 2 C-0.67 1.34 -0.34 0.68 0 0 Z " fill="#5C72BA" transform="translate(68,123)"/>
<path d="M0 0 C0.639375 0.144375 1.27875 0.28875 1.9375 0.4375 C5.93844788 1.17236798 9.95504896 1.58581111 14 2 C14 2.33 14 2.66 14 3 C6.41 3 -1.18 3 -9 3 C-9 2.67 -9 2.34 -9 2 C-4.545 1.505 -4.545 1.505 0 1 C0 0.67 0 0.34 0 0 Z " fill="#6A619F" transform="translate(65,150)"/>
<path d="M0 0 C0.66 0.66 1.32 1.32 2 2 C1.34 3.32 0.68 4.64 0 6 C-2.97 5.505 -2.97 5.505 -6 5 C-5.67 3.68 -5.34 2.36 -5 1 C-2.625 0.375 -2.625 0.375 0 0 Z " fill="#F2EAF2" transform="translate(128,122)"/>
<path d="M0 0 C0.969375 0.144375 1.93875 0.28875 2.9375 0.4375 C7.28052169 1.06047442 11.63765234 1.53507859 16 2 C10.58350521 5.14856379 4.84378453 3.27832787 -1 2 C-0.67 1.34 -0.34 0.68 0 0 Z " fill="#BC567B" transform="translate(88,206)"/>
<path d="M0 0 C0.99 0.66 1.98 1.32 3 2 C1.32482761 5.53647504 0.50719183 6.7911563 -3.1875 8.3125 C-4.5796875 8.6528125 -4.5796875 8.6528125 -6 9 C-4.02 6.03 -2.04 3.06 0 0 Z " fill="#F4EBED" transform="translate(195,165)"/>
<path d="M0 0 C4.95 0.99 4.95 0.99 10 2 C9.67 2.66 9.34 3.32 9 4 C7.68 3.67 6.36 3.34 5 3 C4.67 3.66 4.34 4.32 4 5 C3.01 5.33 2.02 5.66 1 6 C0.67 5.67 0.34 5.34 0 5 C0 3.35 0 1.7 0 0 Z " fill="#EBEFF5" transform="translate(118,83)"/>
<path d="M0 0 C0.99 0.33 1.98 0.66 3 1 C2.67 1.33 2.34 1.66 2 2 C4.97 2.495 4.97 2.495 8 3 C8.33 3.99 8.66 4.98 9 6 C2.25 6.125 2.25 6.125 0 5 C0 3.35 0 1.7 0 0 Z " fill="#FAFDFB" transform="translate(95,55)"/>
<path d="M0 0 C2.24606427 1.77444972 2.95081002 2.58352485 3.29296875 5.48046875 C3.25816406 6.37378906 3.22335938 7.26710938 3.1875 8.1875 C3.16042969 9.08855469 3.13335937 9.98960938 3.10546875 10.91796875 C3.07066406 11.60503906 3.03585938 12.29210937 3 13 C2.87625 12.360625 2.7525 11.72125 2.625 11.0625 C2.41875 10.381875 2.2125 9.70125 2 9 C1.34 8.67 0.68 8.34 0 8 C0.33 7.67 0.66 7.34 1 7 C0.34 6.67 -0.32 6.34 -1 6 C-0.67 4.02 -0.34 2.04 0 0 Z " fill="#3481CD" transform="translate(89,52)"/>
<path d="M0 0 C2.64752004 2.57784846 4.94432065 4.91648098 7 8 C5.35 8.33 3.7 8.66 2 9 C1.34 6.03 0.68 3.06 0 0 Z " fill="#87689E" transform="translate(185,47)"/>
<path d="M0 0 C1.65 0.33 3.3 0.66 5 1 C5.33 2.32 5.66 3.64 6 5 C2.79937313 6.60031344 0.27728194 5.03173691 -3 4 C-2.01 3.67 -1.02 3.34 0 3 C0 2.01 0 1.02 0 0 Z " fill="#836FA6" transform="translate(106,118)"/>
<path d="M0 0 C0.66 0.33 1.32 0.66 2 1 C2.73075648 3.3140622 3.40138258 5.64828869 4 8 C3.34 8 2.68 8 2 8 C1.67 8.99 1.34 9.98 1 11 C-0.98362069 8.08291076 -0.9876191 6.87619096 -0.625 3.25 C-0.41875 2.1775 -0.2125 1.105 0 0 Z " fill="#9C5480" transform="translate(201,72)"/>
<path d="M0 0 C3 1 3 1 4 3 C3.67 3.66 3.34 4.32 3 5 C1.02 5 -0.96 5 -3 5 C-3.33 4.34 -3.66 3.68 -4 3 C-2.1875 1.4375 -2.1875 1.4375 0 0 Z " fill="#B04C7E" transform="translate(85,200)"/>
<path d="M0 0 C3.96 0 7.92 0 12 0 C10.68 0.33 9.36 0.66 8 1 C8 1.66 8 2.32 8 3 C5.33333333 3 2.66666667 3 0 3 C0 2.01 0 1.02 0 0 Z " fill="#BA4877" transform="translate(112,181)"/>
<path d="M0 0 C0.99 0 1.98 0 3 0 C3 1.65 3 3.3 3 5 C-0.3125 5.6875 -0.3125 5.6875 -4 6 C-5.9375 4.5625 -5.9375 4.5625 -7 3 C-5.02 3 -3.04 3 -1 3 C-0.67 2.01 -0.34 1.02 0 0 Z " fill="#7079B2" transform="translate(71,130)"/>
<path d="M0 0 C0.33 0.66 0.66 1.32 1 2 C1.5775 1.67 2.155 1.34 2.75 1 C5 0 5 0 9 0 C9 1.65 9 3.3 9 5 C4.545 4.01 4.545 4.01 0 3 C0 2.01 0 1.02 0 0 Z " fill="#EDEDF6" transform="translate(117,90)"/>
<path d="M0 0 C0.99 0 1.98 0 3 0 C4.125 2.3125 4.125 2.3125 5 5 C4.01 6.485 4.01 6.485 3 8 C3 7.01 3 6.02 3 5 C2.01 5 1.02 5 0 5 C0 4.34 0 3.68 0 3 C-0.66 2.67 -1.32 2.34 -2 2 C-1.34 1.34 -0.68 0.68 0 0 Z " fill="#9D5A8A" transform="translate(197,67)"/>
<path d="M0 0 C0.33 0.99 0.66 1.98 1 3 C1.66 3 2.32 3 3 3 C2.67 3.99 2.34 4.98 2 6 C-0.64 5.67 -3.28 5.34 -6 5 C-4.06745228 2.9754262 -2.36841312 1.57894208 0 0 Z " fill="#179EEE" transform="translate(63,27)"/>
<path d="M0 0 C0.33 0.66 0.66 1.32 1 2 C1.66 2.33 2.32 2.66 3 3 C2.67 3.66 2.34 4.32 2 5 C2.66 5.33 3.32 5.66 4 6 C2.68 6.99 1.36 7.98 0 9 C-1.10844919 5.67465243 -0.84454356 3.37817425 0 0 Z " fill="#E63A56" transform="translate(185,169)"/>
<path d="M0 0 C1.32 0 2.64 0 4 0 C4 0.66 4 1.32 4 2 C0.1496895 4.56687367 -1.58569763 3.83288724 -6 3 C-6 2.34 -6 1.68 -6 1 C-4.7934375 1.0309375 -4.7934375 1.0309375 -3.5625 1.0625 C-1.06645115 1.29633621 -1.06645115 1.29633621 0 0 Z " fill="#AF4B75" transform="translate(156,140)"/>
<path d="M0 0 C1.2077558 3.62326739 0.54311128 4.64146369 -1 8 C-3.9375 7.625 -3.9375 7.625 -7 7 C-7.33 6.34 -7.66 5.68 -8 5 C-6.68 5.33 -5.36 5.66 -4 6 C-4 5.34 -4 4.68 -4 4 C-3.01 4 -2.02 4 -1 4 C-0.67 2.68 -0.34 1.36 0 0 Z " fill="#915681" transform="translate(138,129)"/>
<path d="M0 0 C0.99 0 1.98 0 3 0 C4.125 3.75 4.125 3.75 3 6 C1.68 6 0.36 6 -1 6 C-0.67 4.02 -0.34 2.04 0 0 Z " fill="#F8F5F8" transform="translate(143,131)"/>
<path d="M0 0 C6.0546875 -0.1953125 6.0546875 -0.1953125 8 0 C8.66 0.66 9.32 1.32 10 2 C8.68 2 7.36 2 6 2 C5.34 2.66 4.68 3.32 4 4 C2.68 4 1.36 4 0 4 C0 2.68 0 1.36 0 0 Z " fill="#6566A0" transform="translate(114,93)"/>
<path d="M0 0 C0.33 1.65 0.66 3.3 1 5 C0.401875 4.835 -0.19625 4.67 -0.8125 4.5 C-3.11344336 3.8885876 -3.11344336 3.8885876 -6 4 C-6.33 3.01 -6.66 2.02 -7 1 C-4.53721199 -0.231394 -2.7204945 -0.07159196 0 0 Z " fill="#7C5C94" transform="translate(148,92)"/>
<path d="M0 0 C2.1519437 3.22791555 2.20086443 4.28400809 2 8 C1.01 8.495 1.01 8.495 0 9 C-0.66 9.99 -1.32 10.98 -2 12 C-1.85831863 10.56208484 -1.71148957 9.1246763 -1.5625 7.6875 C-1.48128906 6.88699219 -1.40007813 6.08648437 -1.31640625 5.26171875 C-1 3 -1 3 0 0 Z " fill="#31A0E8" transform="translate(17,88)"/>
<path d="M0 0 C0.33 0 0.66 0 1 0 C1.1953125 2.05078125 1.390625 4.1015625 1.5859375 6.15234375 C1.72257813 6.76207031 1.85921875 7.37179688 2 8 C2.66 8.33 3.32 8.66 4 9 C3.34 10.65 2.68 12.3 2 14 C-0.45536509 11.54463491 -0.61976279 10.42213488 -1 7 C-0.73128549 4.65834501 -0.40961596 2.32115711 0 0 Z " fill="#7F5A90" transform="translate(171,65)"/>
<path d="M0 0 C1.62418745 -0.08090971 3.24951745 -0.13914995 4.875 -0.1875 C5.77992187 -0.22230469 6.68484375 -0.25710937 7.6171875 -0.29296875 C8.79667969 -0.14794922 8.79667969 -0.14794922 10 0 C10.66 0.99 11.32 1.98 12 3 C11.32453125 2.98839844 10.6490625 2.97679687 9.953125 2.96484375 C9.06109375 2.95582031 8.1690625 2.94679687 7.25 2.9375 C6.36828125 2.92589844 5.4865625 2.91429687 4.578125 2.90234375 C2.2181162 2.99173802 0.25501476 3.33087179 -2 4 C-1.34 2.68 -0.68 1.36 0 0 Z " fill="#D9EAF5" transform="translate(95,60)"/>
<path d="M0 0 C0 3 0 3 -1 5 C-0.01 5.33 0.98 5.66 2 6 C1.67 6.66 1.34 7.32 1 8 C-0.98 8 -2.96 8 -5 8 C-3.62845496 5.04590299 -2.01136276 2.55991624 0 0 Z " fill="#169DEC" transform="translate(38,48)"/>
<path d="M0 0 C2.475 0.99 2.475 0.99 5 2 C5 2.66 5 3.32 5 4 C7.475 4.99 7.475 4.99 10 6 C9.67 6.66 9.34 7.32 9 8 C4.7257442 6.4169423 2.73468206 3.49431596 0 0 Z " fill="#756496" transform="translate(42,180)"/>
<path d="M0 0 C3.96 0 7.92 0 12 0 C7.20734907 2.39632547 5.12703728 3.24711718 0 2 C0 1.34 0 0.68 0 0 Z " fill="#A74F7F" transform="translate(96,179)"/>
<path d="M0 0 C0.66 0.33 1.32 0.66 2 1 C1.01 4.3 0.02 7.6 -1 11 C-1.66 10.67 -2.32 10.34 -3 10 C-2.69201674 8.51988629 -2.378482 7.04092675 -2.0625 5.5625 C-1.88847656 4.73878906 -1.71445313 3.91507813 -1.53515625 3.06640625 C-1 1 -1 1 0 0 Z " fill="#DB3C60" transform="translate(205,138)"/>
<path d="M0 0 C0.99 0 1.98 0 3 0 C2.67 1.98 2.34 3.96 2 6 C0.68 5.67 -0.64 5.34 -2 5 C-1.34 3.35 -0.68 1.7 0 0 Z " fill="#9D567E" transform="translate(155,119)"/>
<path d="M0 0 C0.99 0 1.98 0 3 0 C3 0.66 3 1.32 3 2 C3.99 1.67 4.98 1.34 6 1 C5.67 2.65 5.34 4.3 5 6 C3.02 5.01 1.04 4.02 -1 3 C-0.67 2.01 -0.34 1.02 0 0 Z " fill="#8D6D9B" transform="translate(144,95)"/>
<path d="M0 0 C0.66 0.33 1.32 0.66 2 1 C2 2.65 2 4.3 2 6 C0.68 6 -0.64 6 -2 6 C-1.34 4.02 -0.68 2.04 0 0 Z M-4 6 C-3.01 6.495 -3.01 6.495 -2 7 C-2.66 7.66 -3.32 8.32 -4 9 C-4 8.01 -4 7.02 -4 6 Z " fill="#089BF7" transform="translate(27,66)"/>
<path d="M0 0 C0 1.65 0 3.3 0 5 C-2.16874252 4.49396008 -3.99967627 4.00016187 -6 3 C-4.46624489 -0.06751022 -3.38927784 0 0 0 Z " fill="#F2EAEF" transform="translate(137,128)"/>
<path d="M0 0 C0.99 0 1.98 0 3 0 C2.67 1.98 2.34 3.96 2 6 C1.01 5.67 0.02 5.34 -1 5 C-0.67 3.35 -0.34 1.7 0 0 Z " fill="#856E9E" transform="translate(127,107)"/>
<path d="M0 0 C0.66 0.33 1.32 0.66 2 1 C0.68 3.31 -0.64 5.62 -2 8 C-2.99 7.67 -3.98 7.34 -5 7 C-4.34 5.68 -3.68 4.36 -3 3 C-2.34 3.33 -1.68 3.66 -1 4 C-0.67 2.68 -0.34 1.36 0 0 Z " fill="#EAF8FD" transform="translate(29,57)"/>
<path d="M0 0 C0.66 0.33 1.32 0.66 2 1 C1.50168276 4.68754757 0.89932357 6.60490662 -2 9 C-1.125 2.25 -1.125 2.25 0 0 Z " fill="#EAF3F6" transform="translate(34,47)"/>
<path d="M0 0 C0.66 0.33 1.32 0.66 2 1 C2 1.66 2 2.32 2 3 C1.01 3.495 1.01 3.495 0 4 C-0.33 4.99 -0.66 5.98 -1 7 C-1.99 7.33 -2.98 7.66 -4 8 C-3.40138258 5.64828869 -2.73075648 3.3140622 -2 1 C-1.34 0.67 -0.68 0.34 0 0 Z " fill="#9E5A85" transform="translate(135,136)"/>
<path d="M0 0 C1.07349791 4.29399165 0.79682816 5.19495213 -1 9 C-1.99 8.67 -2.98 8.34 -4 8 C-2.68 5.36 -1.36 2.72 0 0 Z " fill="#B35D82" transform="translate(160,131)"/>
<path d="M0 0 C2.1875 0.3125 2.1875 0.3125 4 1 C4 1.99 4 2.98 4 4 C1.69 3.67 -0.62 3.34 -3 3 C-1.75 1.4375 -1.75 1.4375 0 0 Z " fill="#996091" transform="translate(130,131)"/>
<path d="M0 0 C0.33 1.32 0.66 2.64 1 4 C1.99 3.67 2.98 3.34 4 3 C4 3.99 4 4.98 4 6 C2.35 5.67 0.7 5.34 -1 5 C-1.33 3.68 -1.66 2.36 -2 1 C-1.34 0.67 -0.68 0.34 0 0 Z " fill="#6E639E" transform="translate(102,115)"/>
<path d="M0 0 C1.32 0 2.64 0 4 0 C3.67 1.65 3.34 3.3 3 5 C2.34 5 1.68 5 1 5 C0.67 4.67 0.34 4.34 0 4 C-0.66 3.67 -1.32 3.34 -2 3 C-1.34 2.01 -0.68 1.02 0 0 Z " fill="#81759E" transform="translate(112,114)"/>
<path d="M0 0 C0.99 0.99 1.98 1.98 3 3 C2.67 3.99 2.34 4.98 2 6 C0.68 6 -0.64 6 -2 6 C-1.34 4.02 -0.68 2.04 0 0 Z " fill="#7A6195" transform="translate(125,110)"/>
<path d="M0 0 C2.91517292 1.07401108 4.77810176 1.77810176 7 4 C4.125 4.125 4.125 4.125 1 4 C0.34 3.34 -0.32 2.68 -1 2 C-0.67 1.34 -0.34 0.68 0 0 Z " fill="#EEEFF2" transform="translate(120,97)"/>
<path d="M0 0 C2.0625 0.4375 2.0625 0.4375 4 1 C1.03 3.475 1.03 3.475 -2 6 C-1.125 1.125 -1.125 1.125 0 0 Z " fill="#DEF2FC" transform="translate(42,40)"/>
<path d="M0 0 C2.76276177 0.52268466 5.3260876 1.10869587 8 2 C8 2.66 8 3.32 8 4 C6.35 4 4.7 4 3 4 C3 3.34 3 2.68 3 2 C2.01 1.67 1.02 1.34 0 1 C0 0.67 0 0.34 0 0 Z " fill="#3283D3" transform="translate(128,16)"/>
<path d="M0 0 C0.66 0.33 1.32 0.66 2 1 C2.59355614 3.64860427 2.74209269 6.29197322 3 9 C2.34 9 1.68 9 1 9 C0.01 6.69 -0.98 4.38 -2 2 C-1.34 2 -0.68 2 0 2 C0 1.34 0 0.68 0 0 Z " fill="#776097" transform="translate(112,116)"/>
<path d="M0 0 C0.99 0.33 1.98 0.66 3 1 C3.6875 3.0625 3.6875 3.0625 4 5 C2.35 4.67 0.7 4.34 -1 4 C-0.67 2.68 -0.34 1.36 0 0 Z " fill="#875B8B" transform="translate(150,97)"/>
<path d="M0 0 C0.99 0 1.98 0 3 0 C3 1.32 3 2.64 3 4 C1.35 4 -0.3 4 -2 4 C-1.34 2.68 -0.68 1.36 0 0 Z " fill="#5078C1" transform="translate(85,92)"/>
<path d="M0 0 C2.475 0.495 2.475 0.495 5 1 C4.67 2.32 4.34 3.64 4 5 C3.01 4.67 2.02 4.34 1 4 C0.3125 1.9375 0.3125 1.9375 0 0 Z " fill="#6C76B7" transform="translate(113,85)"/>
<path d="M0 0 C2.475 0.495 2.475 0.495 5 1 C4.34 2.32 3.68 3.64 3 5 C2.34 5 1.68 5 1 5 C0.67 3.35 0.34 1.7 0 0 Z " fill="#4688D1" transform="translate(72,76)"/>
</svg>
